<svg xmlns="http://www.w3.org/2000/svg" xmlns:xlink="http://www.w3.org/1999/xlink" width="80" zoomAndPan="magnify" viewBox="0 0 60 60" height="80" preserveAspectRatio="xMidYMid meet" version="1.0"><defs><clipPath id="b17da34155"><path d="M 24.015625 6.710938 L 57 6.710938 L 57 29.210938 L 24.015625 29.210938 Z M 24.015625 6.710938 " clip-rule="nonzero"/></clipPath></defs><g clip-path="url(#b17da34155)"><path fill="#0369a1" d="M 25.808594 16.804688 C 22.167969 13.171875 24.746094 6.957031 29.898438 6.957031 L 51.042969 6.957031 C 56.195312 6.957031 58.777344 13.171875 55.132812 16.804688 L 44.558594 27.351562 C 42.300781 29.605469 38.640625 29.605469 36.382812 27.351562 Z M 25.808594 16.804688 " fill-opacity="0.5" fill-rule="nonzero"/></g><path stroke-linecap="round" transform="matrix(0.726562, 0, 0, 0.726562, 3.3, 6.710067)" fill="none" stroke-linejoin="round" d="M 17.984947 10.667865 L 46.167743 10.667865 C 46.167743 10.667865 43.818281 46.017328 32.076345 46.017328 C 26.339786 46.017328 22.845162 37.581844 20.77527 28.952812 C 18.603226 19.915177 17.984947 10.667865 17.984947 10.667865 Z M 17.984947 10.667865 " stroke="#78350f" stroke-width="1.5" stroke-opacity="1" stroke-miterlimit="4"/><path stroke-linecap="round" transform="matrix(0.726562, 0, 0, 0.726562, 3.3, 6.710067)" fill="none" stroke-linejoin="round" d="M 46.167743 10.667865 C 46.167743 10.667865 48.624733 8.044209 50.667743 8.001198 C 54.667743 7.909801 55.404303 10.667865 55.404303 10.667865 C 56.189249 12.291521 56.812905 16.517328 53.060217 20.420554 C 49.302152 24.318403 45.092474 27.732382 43.382797 28.952812 " stroke="#78350f" stroke-width="1.5" stroke-opacity="1" stroke-miterlimit="4"/><path stroke-linecap="round" transform="matrix(0.726562, 0, 0, 0.726562, 3.3, 6.710067)" fill="none" stroke-linejoin="round" d="M 17.984947 10.667865 C 17.984947 10.667865 15.425807 8.017327 13.334409 8.001198 C 9.334409 7.96894 8.592474 10.667865 8.592474 10.667865 C 7.812904 12.291521 7.183871 16.517328 10.941936 20.420554 C 14.700001 24.318403 19.060216 27.732382 20.77527 28.952812 " stroke="#78350f" stroke-width="1.5" stroke-opacity="1" stroke-miterlimit="4"/><path stroke-linecap="round" transform="matrix(0.726562, 0, 0, 0.726562, 3.3, 6.710067)" fill="none" stroke-linejoin="round" d="M 22.683872 53.334533 C 22.683872 48.458189 32.076345 46.017328 32.076345 46.017328 C 32.076345 46.017328 41.474195 48.458189 41.474195 53.334533 Z M 22.683872 53.334533 " stroke="#78350f" stroke-width="1.5" stroke-opacity="1" stroke-miterlimit="4"/></svg>