<svg xmlns="http://www.w3.org/2000/svg" xmlns:xlink="http://www.w3.org/1999/xlink" width="80" zoomAndPan="magnify" viewBox="0 0 60 60" height="80" preserveAspectRatio="xMidYMid meet" version="1.0"><defs><clipPath id="635cf19a4f"><path d="M 26.5625 6.390625 L 50.5625 6.390625 L 50.5625 30.390625 L 26.5625 30.390625 Z M 26.5625 6.390625 " clip-rule="nonzero"/></clipPath></defs><g clip-path="url(#635cf19a4f)"><path fill="#15803d" d="M 40.058594 8.28125 C 43.933594 4.402344 50.5625 7.148438 50.5625 12.632812 L 50.5625 24.234375 C 50.5625 27.636719 47.808594 30.390625 44.410156 30.390625 L 32.804688 30.390625 C 27.320312 30.390625 24.578125 23.761719 28.453125 19.882812 Z M 40.058594 8.28125 " fill-opacity="0.5" fill-rule="nonzero"/></g><path stroke-linecap="round" transform="matrix(0.726184, 0, 0, 0.726562, 6.417529, 7.169712)" fill="none" stroke-linejoin="round" d="M 53.668322 53.330936 L 11.000954 39.997602 M 53.668322 53.330936 L 11.000954 53.330936 L 11.000954 39.997602 Z M 53.668322 53.330936 L 53.668322 31.997602 C 53.668322 20.218032 44.114962 10.664268 32.334638 10.664268 C 30.215255 10.664268 28.171181 10.976096 26.240068 11.551365 C 17.423652 14.175021 11.000954 22.336312 11.000954 31.997602 L 11.000954 39.997602 Z M 53.668322 53.330936 " stroke="#78350f" stroke-width="1.5" stroke-opacity="1" stroke-miterlimit="4"/><path stroke-linecap="round" transform="matrix(0.726184, 0, 0, 0.726562, 6.417529, 7.169712)" fill="none" stroke-linejoin="miter" d="M 43.00148 23.997602 L 43.00148 26.664269 " stroke="#78350f" stroke-width="1.5" stroke-opacity="1" stroke-miterlimit="4"/><path stroke-linecap="round" transform="matrix(0.726184, 0, 0, 0.726562, 6.417529, 7.169712)" fill="none" stroke-linejoin="miter" d="M 32.334638 21.330935 L 32.334638 23.997602 " stroke="#78350f" stroke-width="1.5" stroke-opacity="1" stroke-miterlimit="4"/><path stroke-linecap="round" transform="matrix(0.726184, 0, 0, 0.726562, 6.417529, 7.169712)" fill="none" stroke-linejoin="miter" d="M 21.667796 18.664268 L 21.667796 21.330935 " stroke="#78350f" stroke-width="1.5" stroke-opacity="1" stroke-miterlimit="4"/></svg>