<svg xmlns="http://www.w3.org/2000/svg" xmlns:xlink="http://www.w3.org/1999/xlink" width="80" zoomAndPan="magnify" viewBox="0 0 60 60" height="80" preserveAspectRatio="xMidYMid meet" version="1.0"><defs><clipPath id="d2a49b9349"><path d="M 35.25 10.648438 L 59.25 10.648438 L 59.25 34.648438 L 35.25 34.648438 Z M 35.25 10.648438 " clip-rule="nonzero"/></clipPath><clipPath id="608913d0c8"><path d="M 6.339844 14 L 53.589844 14 L 53.589844 53.226562 L 6.339844 53.226562 Z M 6.339844 14 " clip-rule="nonzero"/></clipPath></defs><g clip-path="url(#d2a49b9349)"><path fill="#a21caf" d="M 45.917969 10.648438 L 48.582031 10.648438 C 49.285156 10.648438 49.976562 10.71875 50.664062 10.855469 C 51.351562 10.992188 52.019531 11.195312 52.664062 11.460938 C 53.3125 11.730469 53.925781 12.058594 54.511719 12.449219 C 55.09375 12.835938 55.632812 13.277344 56.125 13.773438 C 56.621094 14.269531 57.0625 14.808594 57.453125 15.390625 C 57.84375 15.972656 58.171875 16.585938 58.4375 17.234375 C 58.707031 17.882812 58.910156 18.546875 59.046875 19.234375 C 59.183594 19.921875 59.25 20.617188 59.25 21.316406 L 59.25 23.984375 C 59.25 24.683594 59.183594 25.378906 59.046875 26.0625 C 58.910156 26.75 58.707031 27.417969 58.4375 28.066406 C 58.171875 28.710938 57.84375 29.328125 57.453125 29.910156 C 57.0625 30.492188 56.621094 31.03125 56.125 31.527344 C 55.632812 32.019531 55.09375 32.464844 54.511719 32.851562 C 53.925781 33.242188 53.3125 33.570312 52.664062 33.839844 C 52.019531 34.105469 51.351562 34.308594 50.664062 34.445312 C 49.976562 34.582031 49.285156 34.648438 48.582031 34.648438 L 45.917969 34.648438 C 45.21875 34.648438 44.523438 34.582031 43.835938 34.445312 C 43.148438 34.308594 42.480469 34.105469 41.835938 33.839844 C 41.1875 33.570312 40.574219 33.242188 39.992188 32.851562 C 39.410156 32.464844 38.871094 32.019531 38.375 31.527344 C 37.878906 31.03125 37.4375 30.492188 37.046875 29.910156 C 36.660156 29.328125 36.332031 28.710938 36.0625 28.066406 C 35.792969 27.417969 35.59375 26.75 35.457031 26.0625 C 35.320312 25.378906 35.25 24.683594 35.25 23.984375 L 35.25 21.316406 C 35.25 20.617188 35.320312 19.921875 35.457031 19.234375 C 35.59375 18.546875 35.792969 17.882812 36.0625 17.234375 C 36.332031 16.585938 36.660156 15.972656 37.046875 15.390625 C 37.4375 14.808594 37.878906 14.269531 38.375 13.773438 C 38.871094 13.277344 39.410156 12.835938 39.992188 12.449219 C 40.574219 12.058594 41.1875 11.730469 41.835938 11.460938 C 42.480469 11.195312 43.148438 10.992188 43.835938 10.855469 C 44.523438 10.71875 45.21875 10.648438 45.917969 10.648438 Z M 45.917969 10.648438 " fill-opacity="0.5" fill-rule="nonzero"/></g><g clip-path="url(#608913d0c8)"><path stroke-linecap="butt" transform="matrix(0.726214, 0, 0, 0.726562, 6.361639, 6.72579)" fill="none" stroke-linejoin="miter" d="M 5.99976 53.334398 L 5.99976 24.001064 C 5.99976 21.054827 8.388002 18.66773 11.335651 18.66773 L 54.001265 18.66773 C 56.943535 18.66773 59.331777 21.054827 59.331777 24.001064 L 59.331777 53.334398 C 59.331777 56.280634 56.943535 58.667731 54.001265 58.667731 L 11.335651 58.667731 C 8.388002 58.667731 5.99976 56.280634 5.99976 53.334398 Z M 5.99976 53.334398 " stroke="#78350f" stroke-width="1.5" stroke-opacity="1" stroke-miterlimit="4"/></g><path stroke-linecap="round" transform="matrix(0.726214, 0, 0, 0.726562, 6.361639, 6.72579)" fill="none" stroke-linejoin="round" d="M 23.336027 6.66773 L 32.668458 16.001064 L 42.000888 6.66773 " stroke="#78350f" stroke-width="1.5" stroke-opacity="1" stroke-miterlimit="4"/></svg>